<svg xmlns="http://www.w3.org/2000/svg" xmlns:xlink="http://www.w3.org/1999/xlink" viewBox="0 0 67.16 67.16"><defs><style>.cls-1{fill:none;stroke:#ccc;stroke-miterlimit:10;stroke-width:3px;}</style><symbol id="New_Symbol_23" data-name="New Symbol 23" viewBox="0 0 67.16 67.16"><path class="cls-1" d="M20.15,27.37l-7,1-1.23.17A1.4,1.4,0,0,1,10.25,27c.33-2.35.67-4.7,1-7,.06-.41.11-.81.17-1.28L8,19.11c-1.65.23-3.29.48-4.94.69a1.38,1.38,0,0,1-1.59-1.6q1-6.72,1.93-13.44A1.38,1.38,0,0,1,4.77,3.44L18.17,1.52A1.48,1.48,0,0,1,19.49,2l4,4L39.27,21.78a.83.83,0,0,0,.82.26A21.58,21.58,0,0,1,58.9,27.83a20.89,20.89,0,0,1,6.54,12.83,21.44,21.44,0,0,1-5.19,17.45,20.87,20.87,0,0,1-12.32,7.12,21.44,21.44,0,0,1-19.5-5.72A21.19,21.19,0,0,1,22,47.27a20.76,20.76,0,0,1,0-7.18.77.77,0,0,0-.24-.79c-.8-.76-1.56-1.55-2.34-2.32A1.57,1.57,0,0,1,19,35.53c.38-2.54.73-5.08,1.1-7.62C20.13,27.75,20.14,27.59,20.15,27.37Z"/><path class="cls-1" d="M42.7,48.53a5.84,5.84,0,1,1,5.83,5.84A5.83,5.83,0,0,1,42.7,48.53Z"/></symbol></defs><title>Password</title><g id="Layer_2" data-name="Layer 2"><g id="Layer_2-2" data-name="Layer 2"><use width="67.16" height="67.16" xlink:href="#New_Symbol_23"/></g></g></svg>